<svg xmlns="http://www.w3.org/2000/svg" width="48" height="48" viewBox="0 0 48 48" role="img" aria-labelledby="title desc">
  <title id="title">HK Bus Web icon</title>
  <desc id="desc">Rounded square favicon with a stylized Hong Kong bus front.</desc>
  <defs>
    <linearGradient id="bg" x1="0%" x2="100%" y1="0%" y2="100%">
      <stop offset="0%" stop-color="#17345f" />
      <stop offset="100%" stop-color="#8f2d14" />
    </linearGradient>
    <linearGradient id="bus" x1="0%" x2="100%" y1="0%" y2="100%">
      <stop offset="0%" stop-color="#fffaf4" />
      <stop offset="100%" stop-color="#f0e3cd" />
    </linearGradient>
  </defs>

  <rect width="48" height="48" rx="12" fill="url(#bg)" />
  <circle cx="24" cy="18" r="13" fill="#fff8f1" fill-opacity="0.12" />

  <rect x="8" y="11" width="32" height="24" rx="7" fill="url(#bus)" />
  <rect x="12" y="15" width="24" height="10" rx="3" fill="#17345f" />
  <rect x="14" y="17" width="7" height="4" rx="1.2" fill="#8dc8ff" />
  <rect x="27" y="17" width="7" height="4" rx="1.2" fill="#8dc8ff" />
  <rect x="14" y="27" width="20" height="2" rx="1" fill="#8f2d14" fill-opacity="0.28" />

  <circle cx="16" cy="36" r="3.6" fill="#17345f" />
  <circle cx="32" cy="36" r="3.6" fill="#17345f" />

  <path d="M15 30h18c1.7 0 3 1.3 3 3v4H12v-4c0-1.7 1.3-3 3-3Z" fill="#8f2d14" />
  <rect x="18" y="31.5" width="12" height="3.8" rx="1.4" fill="#fff8f1" />
  <text
    x="24"
    y="34.3"
    text-anchor="middle"
    font-family="Segoe UI, Arial, sans-serif"
    font-size="4.2"
    font-weight="700"
    fill="#8f2d14"
    letter-spacing="0.6"
  >
    HK
  </text>
</svg>
